<?xml version="1.0"?>
<svg xmlns="http://www.w3.org/2000/svg" xmlns:xlink="http://www.w3.org/1999/xlink" version="1.1" id="Capa_1" x="0px" y="0px" viewBox="0 0 464 464" style="enable-background:new 0 0 464 464;" xml:space="preserve" width="512px" height="512px"><g><g>
	<g>
		<path d="M440,0H24C10.768,0,0,10.768,0,24v336v80c0,13.232,10.768,24,24,24h416c13.232,0,24-10.768,24-24v-80V24    C464,10.768,453.232,0,440,0z M448,440c0,4.416-3.584,8-8,8H24c-4.416,0-8-3.584-8-8v-72h69.312H378.68H448V440z M365.856,352    H98.144c26.528-48.976,77.808-79.992,133.856-79.992C288.048,272.008,339.328,303.024,365.856,352z M144,168    c0-48.52,39.48-88,88-88s88,39.48,88,88s-39.48,88-88,88C183.48,256,144,216.52,144,168z M448,352h-64.32    c-21.44-44.792-61.04-77.232-107.552-89.968C311.44,245.392,336,209.552,336,168c0-57.344-46.656-104-104-104s-104,46.656-104,104    c0,41.552,24.56,77.392,59.872,94.032c-46.52,12.736-86.12,45.176-107.56,89.968H16V24c0-4.416,3.584-8,8-8h416    c4.416,0,8,3.584,8,8V352z" data-original="#000000" class="active-path" data-old_color="#000000" fill="#E2FFE2"/>
	</g>
</g></g> </svg>
